<?xml version="1.0" encoding="utf-8"?>
<!-- Generator: Adobe Illustrator 26.0.1, SVG Export Plug-In . SVG Version: 6.00 Build 0)  -->
<svg version="1.1" id="Layer_1" xmlns="http://www.w3.org/2000/svg" xmlns:xlink="http://www.w3.org/1999/xlink" x="0px" y="0px"
	 viewBox="0 0 192.61 229.3" style="enable-background:new 0 0 192.61 229.3;" xml:space="preserve">
<style type="text/css">
	.st0{fill:#B8D5EA;}
	.st1{fill:#FFFFFF;stroke:#000000;stroke-miterlimit:10;}
	.st2{fill:#C9E6F7;}
</style>
<path class="st0" d="M181.58,225.17H11.47c-3.74,0-6.76-3.03-6.76-6.76V11.81c0-3.74,3.03-6.76,6.76-6.76h170.11
	c3.74,0,6.76,3.03,6.76,6.76v206.6C188.35,222.14,185.32,225.17,181.58,225.17z"/>
<path class="st1" d="M210.96,41.12"/>
<path class="st2" d="M153.3,204.67H33.38c-2.87,0-5.2-2.33-5.2-5.2v-4.84c0-2.87,2.33-5.2,5.2-5.2H153.3c2.87,0,5.2,2.33,5.2,5.2
	v4.84C158.5,202.34,156.17,204.67,153.3,204.67z"/>
<path class="st2" d="M163.28,115.11H32.67c-2.87,0-5.2-2.33-5.2-5.2v-4.84c0-2.87,2.33-5.2,5.2-5.2h130.6c2.87,0,5.2,2.33,5.2,5.2
	v4.84C168.47,112.78,166.15,115.11,163.28,115.11z"/>
<path class="st2" d="M151.61,144.77H32.67c-2.87,0-5.2-2.33-5.2-5.2v-4.84c0-2.87,2.33-5.2,5.2-5.2h118.94c2.87,0,5.2,2.33,5.2,5.2
	v4.84C156.81,142.44,154.48,144.77,151.61,144.77z"/>
<path class="st2" d="M163.99,174.43H33.38c-2.87,0-5.2-2.33-5.2-5.2v-4.84c0-2.87,2.33-5.2,5.2-5.2h130.6c2.87,0,5.2,2.33,5.2,5.2
	v4.84C169.19,172.1,166.86,174.43,163.99,174.43z"/>
<path class="st2" d="M163.28,57.81H33.38c-2.87,0-5.2-2.33-5.2-5.2V29.62c0-2.87,2.33-5.2,5.2-5.2h129.89c2.87,0,5.2,2.33,5.2,5.2
	v22.99C168.47,55.48,166.15,57.81,163.28,57.81z"/>
<path class="st2" d="M123.8,86.46H32.67c-2.87,0-5.2-2.33-5.2-5.2v-4.84c0-2.87,2.33-5.2,5.2-5.2h91.13c2.87,0,5.2,2.33,5.2,5.2
	v4.84C129,84.13,126.67,86.46,123.8,86.46z"/>
</svg>
