<?xml version="1.0" encoding="utf-8"?>
<!-- Generator: Adobe Illustrator 26.0.1, SVG Export Plug-In . SVG Version: 6.00 Build 0)  -->
<svg version="1.1" id="Layer_1" xmlns="http://www.w3.org/2000/svg" xmlns:xlink="http://www.w3.org/1999/xlink" x="0px" y="0px"
	 viewBox="0 0 1920 649" style="enable-background:new 0 0 1920 649;" xml:space="preserve">
<style type="text/css">
	.st0{fill:url(#SVGID_1_);}
	.st1{fill:#FFFFFF;}
	.st2{fill:#4C3703;}
	.st3{fill:#E3EAD3;}
	.st4{fill:#6FBF5C;}
	.st5{fill:#C4D7B6;}
	.st6{fill:#230944;}
	.st7{fill:#F29D6D;}
	.st8{fill:#FEC483;}
	.st9{fill:#468731;}
	.st10{fill:#0A002E;}
	.st11{fill:#60AA4B;}
	.st12{fill:#447337;}
	.st13{fill:#64A04E;}
	.st14{fill:#919191;}
	.st15{fill:#DDDAD7;}
	.st16{opacity:0.6;}
	.st17{opacity:0.3;}
	.st18{fill:#35BB48;}
	.st19{fill:#3DA41A;}
	.st20{fill:#BBE2AC;}
	.st21{fill:#606060;}
	.st22{fill:url(#SVGID_00000036235165313581042620000010168405619011837873_);}
	.st23{fill:#545454;}
	.st24{fill:#2D2D2D;}
	.st25{fill:#989998;}
	.st26{fill:#F8FCF7;}
</style>
<linearGradient id="SVGID_1_" gradientUnits="userSpaceOnUse" x1="1275.915" y1="-702.5839" x2="1565.6492" y2="-702.5839" gradientTransform="matrix(7.216450e-16 -1 1 7.216450e-16 1662.0839 1591.6425)">
	<stop  offset="0" style="stop-color:#FFFFFF;stop-opacity:0.6"/>
	<stop  offset="0.1759" style="stop-color:#DEEBF5;stop-opacity:0.725"/>
	<stop  offset="0.3532" style="stop-color:#C2DBED;stop-opacity:0.851"/>
	<stop  offset="0.4569" style="stop-color:#B8D5EA;stop-opacity:0.9247"/>
</linearGradient>
<path class="st0" d="M1919,13v265.73c0,6.6-5.4,12-12,12H12c-6.6,0-12-5.4-12-12L0,13C0,6.4,5.4,1,12,1h1895
	C1913.6,1,1919,6.4,1919,13z"/>
<path class="st1" d="M467.64,172.92c0,0,18.99-31.72,66.38-19.64c0,0,16.05,11.58,10.24,16.62c0,0,16.25-6.55,15.09,3.02
	c0,0,22.06-1.51,16.83,11.08H463"/>
<path class="st2" d="M4,346.34v118.74v174.58C4,644.8,9.4,649,16,649h1891c6.6,0,12-4.2,12-9.34V346.34c0-5.14-5.4-9.34-12-9.34H16
	C9.4,337,4,341.2,4,346.34z"/>
<path class="st1" d="M1297.54,179.79c0,0,32.02-42.22,111.96-26.14c0,0,27.07,15.41,17.28,22.12c0,0,27.41-8.71,25.45,4.02
	c0,0,37.2-2.01,28.39,14.74h-190.91"/>
<polygon class="st3" points="499.48,302.32 646.15,213 797.66,303.93 "/>
<path class="st1" d="M1134.14,240.48c2.31-14.42,10.66-42.86,40.61-41.05c0.44,0.03,0.87,0.1,1.3,0.24
	c3.74,1.18,22.47,8.19,38.23,33.87c1.74,2.84,4.59,3.99,7.23,2.94c8.63-3.42,27.68-8.2,35.29,12.13c1.45,3.87,4.85,5.64,7.96,4.41
	c1.66-0.66,3.55-1.13,5.46-1.06c8.73,0.32,8.24,18.02-0.49,18.02h-188.43c-3,0-5.74-2.58-6.5-6.43c-1.82-9.2,2.08-24.17,51.86-16.13
	C1130.13,247.98,1133.41,245.01,1134.14,240.48z"/>
<path class="st1" d="M1523.29,247.37c1.61-9.59,7.46-28.52,28.44-27.31c0.31,0.02,0.61,0.07,0.91,0.16
	c2.62,0.79,15.73,5.45,26.77,22.54c1.22,1.89,3.21,2.65,5.06,1.96c6.04-2.28,19.38-5.46,24.71,8.07c1.01,2.57,3.39,3.75,5.57,2.93
	c1.17-0.44,2.48-0.75,3.83-0.7c6.11,0.22,5.77,11.99-0.34,11.99H1486.3c-2.1,0-4.02-1.72-4.55-4.28
	c-1.28-6.12,1.46-16.08,36.31-10.73C1520.48,252.36,1522.78,250.39,1523.29,247.37z"/>
<path class="st1" d="M55.95,272.5c2.12-12.95,9.81-38.5,37.38-36.87c0.4,0.02,0.8,0.09,1.2,0.21c3.44,1.06,20.68,7.36,35.19,30.42
	c1.6,2.55,4.22,3.58,6.65,2.64c7.94-3.07,25.47-7.37,32.48,10.89c1.33,3.47,4.46,5.07,7.32,3.96c1.53-0.59,3.27-1.01,5.03-0.95
	c8.03,0.29,7.58,16.19-0.45,16.19H7.33c-2.76,0-5.28-2.32-5.99-5.78c-1.68-8.27,1.92-21.71,47.72-14.49
	C52.26,279.24,55.28,276.57,55.95,272.5z"/>
<path class="st1" d="M273.6,218.72c1.84-8.44,8.49-25.1,32.34-24.04c0.35,0.02,0.7,0.06,1.04,0.14c2.98,0.69,17.89,4.8,30.45,19.83
	c1.39,1.66,3.65,2.34,5.76,1.72c6.87-2,22.04-4.8,28.11,7.1c1.15,2.26,3.86,3.3,6.34,2.58c1.33-0.39,2.83-0.66,4.35-0.62
	c6.95,0.19,6.56,10.55-0.39,10.55H231.53c-2.39,0-4.57-1.51-5.18-3.77c-1.45-5.39,1.66-14.16,41.3-9.44
	C270.41,223.12,273.02,221.38,273.6,218.72z"/>
<path class="st1" d="M920.92,279.98c0.86-4.41,3.96-13.1,15.1-12.55c0.16,0.01,0.32,0.03,0.48,0.07c1.39,0.36,8.35,2.5,14.22,10.35
	c0.65,0.87,1.71,1.22,2.69,0.9c3.21-1.05,10.29-2.51,13.12,3.71c0.54,1.18,1.8,1.73,2.96,1.35c0.62-0.2,1.32-0.34,2.03-0.32
	c3.25,0.1,3.06,5.51-0.18,5.51h-70.07c-1.12,0-2.13-0.79-2.42-1.97c-0.68-2.81,0.78-7.39,19.28-4.93
	C919.43,282.28,920.65,281.37,920.92,279.98z"/>
<polygon class="st3" points="0.74,327.93 103.53,254.94 215.16,320.92 "/>
<polygon class="st3" points="176.38,315.61 284.25,254 395.69,316.73 "/>
<polygon class="st4" points="1592.56,322.43 1751.16,236 1915,324 "/>
<polygon class="st3" points="974.08,325.7 1069.33,254 1167.74,327 "/>
<polygon class="st3" points="1121.98,318.21 1286.77,219.19 1457.02,320 "/>
<path class="st1" d="M119,166.2c1.38-6.74,6.36-20.05,24.24-19.21c0.26,0.01,0.52,0.05,0.78,0.11c2.23,0.55,13.41,3.83,22.82,15.85
	c1.04,1.33,2.74,1.87,4.31,1.38c5.15-1.6,16.52-3.84,21.07,5.67c0.86,1.81,2.89,2.64,4.75,2.06c0.99-0.31,2.12-0.53,3.26-0.49
	c5.21,0.15,4.92,8.43-0.29,8.43H87.46c-1.79,0-3.43-1.21-3.88-3.01c-1.09-4.31,1.24-11.31,30.96-7.54
	C116.6,169.71,118.56,168.32,119,166.2z"/>
<polygon class="st3" points="306.16,308.36 452.83,218 604.35,309.99 "/>
<path class="st1" d="M739.8,227.4c2.17-9.09,10.04-27.01,38.28-25.87c0.41,0.02,0.82,0.07,1.23,0.15
	c3.52,0.75,21.18,5.16,36.03,21.35c1.64,1.79,4.32,2.51,6.81,1.85c8.13-2.16,26.09-5.17,33.26,7.64c1.36,2.44,4.57,3.56,7.5,2.78
	c1.57-0.42,3.34-0.71,5.15-0.67c8.23,0.2,7.77,11.36-0.46,11.36H690.01c-2.83,0-5.41-1.63-6.13-4.05
	c-1.72-5.8,1.96-15.24,48.87-10.16C736.02,232.13,739.11,230.26,739.8,227.4z"/>
<polygon class="st3" points="762.14,302.7 857.4,234.66 955.8,303.93 "/>
<polygon class="st5" points="646.15,213 688.47,256.82 630.69,279.83 688.47,300.65 499.48,299.09 "/>
<polygon class="st5" points="451.63,218 494.63,254.73 490.66,258.67 499.48,261.83 503.5,269.29 533.05,281.64 503.22,300.38 
	472.93,311.04 350.33,313.62 298.96,313.62 "/>
<rect x="-2" y="600" class="st6" width="1922.94" height="49"/>
<ellipse class="st7" cx="972.96" cy="218.71" rx="38.04" ry="36.29"/>
<path class="st1" d="M860.66,105.03c1.84-11.22,8.51-33.37,32.44-31.96c0.35,0.02,0.7,0.08,1.04,0.19
	c2.99,0.92,17.94,6.38,30.53,26.37c1.39,2.21,3.66,3.1,5.77,2.29c6.89-2.66,22.11-6.39,28.19,9.44c1.16,3.01,3.87,4.39,6.36,3.43
	c1.33-0.51,2.83-0.88,4.36-0.82c6.97,0.25,6.58,14.03-0.39,14.03H818.47c-2.4,0-4.58-2.01-5.19-5.01
	c-1.46-7.17,1.66-18.82,41.41-12.56C857.45,110.87,860.08,108.56,860.66,105.03z"/>
<path class="st1" d="M1768.58,167.14c0,0,22.82-56.88,79.78-35.21c0,0,19.29,20.77,12.31,29.8c0,0,19.53-11.74,18.14,5.42
	c0,0,26.51-2.71,20.23,19.86H1763"/>
<ellipse transform="matrix(0.0119 -0.9999 0.9999 0.0119 742.6617 1189.7742)" class="st8" cx="973.35" cy="219.1" rx="29.18" ry="30.41"/>
<g>
	<polyline points="299,316.9 291.92,316.9 295.41,310.2 	"/>
	<polyline points="299,314.4 291.92,314.4 295.41,307.7 	"/>
	<polyline points="298.2,311.31 292.8,311.31 295.47,305.33 	"/>
	<rect x="295.01" y="316.9" width="1.23" height="4.1"/>
</g>
<g>
	<polyline points="288.5,315.79 281.42,315.79 284.92,309.09 	"/>
	<polyline points="288.5,313.29 281.42,313.29 284.92,306.6 	"/>
	<polyline points="287.71,310.2 282.31,310.2 284.97,304.22 	"/>
	<rect x="284.51" y="315.79" width="1.23" height="4.1"/>
</g>
<g>
	<polyline points="267,314.49 254.09,314.49 260.46,302.23 	"/>
	<polyline points="267,309.92 254.09,309.92 260.46,297.67 	"/>
	<polyline points="265.55,304.27 255.71,304.27 260.56,293.32 	"/>
	<rect x="259.72" y="314.49" width="2.24" height="7.51"/>
</g>
<path class="st4" d="M1908,544H58c-6.6,0-12-5.4-12-12V334c0-6.6,5.4-12,12-12h1850c6.6,0,12,5.4,12,12v198
	C1920,538.6,1914.6,544,1908,544z"/>
<g>
	<polyline points="696,308.57 687.66,308.57 691.78,299.71 	"/>
	<polyline points="696,305.27 687.66,305.27 691.78,296.41 	"/>
	<polyline points="695.06,301.18 688.71,301.18 691.84,293.27 	"/>
	<rect x="691.3" y="308.57" width="1.45" height="5.43"/>
</g>
<g>
	<polyline points="1098,295.33 1088.27,295.33 1093.07,284.45 	"/>
	<polyline points="1098,291.27 1088.27,291.27 1093.07,280.39 	"/>
	<polyline points="1096.9,286.25 1089.49,286.25 1093.15,276.53 	"/>
	<rect x="1092.52" y="295.33" width="1.69" height="6.67"/>
</g>
<path class="st9" d="M-1,329.74V606h1919.94l-114.15-20.05c-498.68,32.39-306.42-36.73-306.42-36.73
	c144.2-39.82-464.13-0.29-464.13-0.29c-383.02,4.63-334.95-48.2-334.95-48.2c150.2-32.39-301.91-58.23-301.91-58.23
	c-69.09-2.7-63.09-17.74-63.09-17.74c4.51-8.87-30.04-6.56-30.04-6.56c-124.67-0.77-162.22-23.91-112.65-29.69
	c49.57-5.78-37.55-6.94-37.55-6.94C-78.77,338,134.54,329,134.54,329"/>
<path class="st6" d="M128,612c0,0,1.16-31.9,90.08-35.45c0,0,28.94,13.98,37.43-14.28c0,0,38.49-24.27,64.49,9.73
	c0,0-3.19,18,29.9,29l16.47,37.57L128,612z"/>
<path class="st6" d="M218.52,621.44c0,0,1.16-31.9,90.08-35.45c0,0,28.94,13.98,37.43-14.28c0,0,38.49-24.27,64.49,9.73
	c0,0-3.19,18,29.9,29L456.9,648L218.52,621.44z"/>
<path class="st6" d="M366.52,610.44c0,0,1.16-31.9,90.08-35.45c0,0,28.94,13.98,37.43-14.28c0,0,38.49-24.27,64.49,9.73
	c0,0-3.19,18,29.9,29L604.9,637L366.52,610.44z"/>
<polygon class="st5" points="284.25,254 295.62,270.13 296.24,279.14 301,283.26 315.79,303.9 292.8,320.15 212.64,321 
	183.23,316.61 176.38,316.57 "/>
<polygon class="st5" points="103.17,255.28 133.29,285.99 133.29,302.68 162.79,323.52 -1,329 "/>
<path class="st10" d="M1928.97,459.71"/>
<path class="st6" d="M564.15,649.54c0,0,22.19-24.51,175.64-41.38c153.45-16.88,223.49-43.34,280.95-30.43
	s184.42,11.77,207.21-10.35c0.23-0.22,0.45-0.44,0.68-0.66c32.37-31.71,79.85-48.51,128.45-45.35c27.66,1.8,62.25,6.04,105.41,14.09
	c182.99,34.09,245.71-45.75,382.54-9.99c0,0,54.91,12.52,67.32-8.78c12.41-21.3,3.65,133.4,3.65,133.4"/>
<path class="st11" d="M743.89,581.52c0,0,19.24-21.17,152.34-35.76c133.09-14.58,193.84-37.45,243.68-26.29
	c49.83,11.16,159.96,10.17,179.72-8.94c0.2-0.19,0.39-0.38,0.59-0.57c28.07-27.4,69.26-41.91,111.41-39.18
	c23.99,1.55,53.99,5.22,91.42,12.17c158.71,29.46,213.11-39.53,331.79-8.63c0,0,47.63,10.82,58.39-7.58
	c10.77-18.4,3.16,115.26,3.16,115.26"/>
<g>
	<g>
		<polyline class="st6" points="1901.81,589.65 1825.87,589.65 1863.35,505.76 		"/>
		<polyline class="st6" points="1901.81,558.38 1825.87,558.38 1863.35,474.49 		"/>
		<polyline class="st6" points="1893.26,519.67 1835.38,519.67 1863.94,444.71 		"/>
		<rect x="1859" y="589.65" class="st6" width="13.19" height="51.42"/>
	</g>
</g>
<g>
	<g>
		<polyline class="st12" points="1732,517.33 1673.83,517.33 1702.54,434.66 		"/>
		<polyline class="st12" points="1732,486.51 1673.83,486.51 1702.54,403.84 		"/>
		<polyline class="st12" points="1725.45,448.36 1681.11,448.36 1702.99,374.49 		"/>
		<rect x="1699.2" y="517.33" class="st6" width="10.1" height="50.67"/>
	</g>
</g>
<polyline class="st13" points="189.27,298.64 204,349.03 197.16,349.03 209,383.43 201,382.45 212.14,412 216.27,412 207,387.37 
	218,387.37 204.96,355.32 211.93,354.14 190.9,292.93 "/>
<path class="st14" d="M326.08,472.43c0,0,0.3-3.56,2.8-5.16c0,0,3.07,2.29,3.99-0.73c0,0,1.84-3.56,5.93,0.15
	c0,0,1.72,0.83,1.56,2.95c0,0,0,2.55,0.44,2.98c0,0,0.44,1.63,0,2.44s1.01,1.46-2.46,1.89c-3.47,0.43-12.24-1.73-12.14-2.87
	C326.31,472.93,326.08,472.43,326.08,472.43z"/>
<g>
	<g>
		<polyline class="st12" points="81,354.68 58.48,354.68 69.59,323.16 		"/>
		<polyline class="st12" points="81,342.93 58.48,342.93 69.59,311.41 		"/>
		<polyline class="st12" points="69.77,300.22 68.87,303.21 61.3,328.38 78.46,328.38 		"/>
		<rect x="68.3" y="354.68" class="st6" width="3.91" height="19.32"/>
	</g>
</g>
<polyline class="st13" points="69,303.59 75.67,326.44 72.57,326.44 77.93,342.04 74.31,341.6 79.35,355 81.22,355 77.02,343.83 
	82,343.83 76.1,329.29 79.25,328.76 69.74,301 "/>
<path class="st14" d="M172.68,550.03c0,0,0.51-5.64,4.86-8.17c0,0,5.33,3.63,6.93-1.16c0,0,3.19-5.63,10.31,0.23
	c0,0,2.98,1.32,2.71,4.66c0,0,0,4.03,0.76,4.72c0,0,0.76,2.58,0,3.86c-0.76,1.28,1.75,2.31-4.27,3c-6.02,0.69-21.26-2.74-21.08-4.55
	C173.08,550.82,172.68,550.03,172.68,550.03z"/>
<path class="st14" d="M1038,812"/>
<g>
	<g>
		<polyline class="st12" points="521,354.46 507.93,354.46 514.38,337.26 		"/>
		<polyline class="st12" points="521,348.05 507.93,348.05 514.38,330.85 		"/>
		<polyline class="st12" points="514.48,324.74 513.96,326.37 509.57,340.11 519.53,340.11 		"/>
		<rect x="513.63" y="354.46" class="st6" width="2.27" height="10.54"/>
	</g>
</g>
<g>
	<g>
		<polyline class="st12" points="1886.01,366.47 1858.26,366.47 1871.96,320.5 		"/>
		<polyline class="st12" points="1886.01,349.33 1858.26,349.33 1871.96,303.36 		"/>
		<polyline class="st12" points="1882.88,328.12 1861.73,328.12 1872.17,287.05 		"/>
		<rect x="1870.36" y="366.47" class="st6" width="4.82" height="28.18"/>
	</g>
</g>
<polygon class="st3" points="1094.4,312.93 1169.46,254 1247,314 "/>
<path class="st3" d="M1024.24,319.72c0,0-125.22,24.08-102.73,45.68c0,0,55.09,27.13,160.29,12.37c0,0,70.2-0.76-25.8,23.24
	c0,0-185,30-112,72c0,0,68,26,88,29c0,0,42.01,8.52,28.01,18.76l100.89,2.74h26.6c0,0-90.5-68.5-155.5-69.5c0,0-33.83-9,16.08-21
	c0,0,119.92-24,103.92-65c0,0,12-20-148-5c0,0-92.5-4.98,42.25-37.99l6.9-3.01L1024.24,319.72z"/>
<g>
	<g>
		<polyline class="st6" points="672,599.94 596.06,599.94 633.54,516.05 		"/>
		<polyline class="st6" points="672,568.67 596.06,568.67 633.54,484.78 		"/>
		<polyline class="st6" points="663.44,529.96 605.57,529.96 634.13,455 		"/>
		<rect x="629.18" y="599.94" class="st6" width="13.19" height="51.42"/>
	</g>
</g>
<g>
	<g>
		<polyline class="st6" points="83,575.37 8.43,575.37 45.24,489.52 		"/>
		<polyline class="st6" points="83,543.37 8.43,543.37 45.24,457.52 		"/>
		<polyline class="st6" points="74.6,503.76 17.77,503.76 45.82,427.05 		"/>
		<rect x="40.96" y="575.37" class="st6" width="12.95" height="52.63"/>
	</g>
</g>
<g>
	<g>
		<polyline class="st6" points="254,589.04 176.43,589.04 214.72,491.23 		"/>
		<polyline class="st6" points="254,552.58 176.43,552.58 214.72,454.77 		"/>
		<polyline class="st6" points="245.26,507.44 186.14,507.44 215.32,420.05 		"/>
		<rect x="210.27" y="589.04" class="st6" width="13.47" height="59.96"/>
	</g>
</g>
<path class="st14" d="M292.89,352.78c0,0,0.14-1.73,1.33-2.5c0,0,1.46,1.11,1.9-0.36c0,0,0.88-1.73,2.83,0.07
	c0,0,0.82,0.4,0.74,1.43c0,0,0,1.24,0.21,1.45c0,0,0.21,0.79,0,1.18c-0.21,0.39,0.48,0.71-1.17,0.92s-5.83-0.84-5.78-1.39
	S292.89,352.78,292.89,352.78z"/>
<path class="st14" d="M455,392.5c0,0-0.24-3.51-2.25-5.08c0,0-2.47,2.26-3.21-0.72c0,0-1.48-3.51-4.77,0.14c0,0-1.38,0.82-1.26,2.9
	c0,0,0,2.51-0.35,2.94c0,0-0.35,1.6,0,2.4s-0.81,1.44,1.98,1.87c2.79,0.43,9.85-1.71,9.76-2.83C454.81,393,455,392.5,455,392.5z"/>
<path class="st14" d="M163.01,451.79c0,0,0.3-2.5,2.8-3.62c0,0,3.07,1.61,3.99-0.52c0,0,1.84-2.5,5.93,0.1c0,0,1.72,0.59,1.56,2.07
	c0,0,0,1.79,0.44,2.09c0,0,0.44,1.14,0,1.71c-0.44,0.57,1.01,1.03-2.46,1.33c-3.47,0.3-12.24-1.22-12.14-2.02
	S163.01,451.79,163.01,451.79z"/>
<path class="st3" d="M431.66,467.88c0,0,3.39-22,37.14-6.11c0,0,6.05,5.8,1.97,7.35c0,0,1.63,5.43,8.96,1.55c0,0,7.33,3.48,0,5.23
	c-7.33,1.75-49.56-1.19-49.56-1.19S434.11,467.41,431.66,467.88z"/>
<path class="st15" d="M435,469.41c0,0,1.33-13.51,16.77-10.39c0,0,20.95,3.12,17.16,10.39c0,0-1.43,3.12,2.07,3.12
	c0,0,1.42,4.16-35.99,0V469.41z"/>
<g>
	<g>
		<polyline class="st12" points="1042,340.51 1029.66,340.51 1035.75,325.03 		"/>
		<polyline class="st12" points="1042,334.74 1029.66,334.74 1035.75,319.26 		"/>
		<polyline class="st12" points="1035.85,313.76 1035.35,315.22 1031.2,327.59 1040.61,327.59 		"/>
		<rect x="1035.04" y="340.51" class="st6" width="2.14" height="9.49"/>
	</g>
</g>
<g>
	<g>
		<polyline class="st12" points="618,400.79 592.47,400.79 605.07,358.02 		"/>
		<polyline class="st12" points="618,384.84 592.47,384.84 605.07,342.08 		"/>
		<polyline class="st12" points="605.27,326.9 604.25,330.95 595.67,365.11 615.12,365.11 		"/>
		<rect x="603.61" y="400.79" class="st6" width="4.43" height="26.21"/>
	</g>
</g>
<g>
	<g>
		<polyline class="st12" points="779,434.58 743.73,434.58 761.14,384.95 		"/>
		<polyline class="st12" points="779,416.08 743.73,416.08 761.14,366.45 		"/>
		<polyline class="st12" points="761.41,348.83 760,353.53 748.14,393.17 775.03,393.17 		"/>
		<rect x="759.11" y="434.58" class="st6" width="6.13" height="30.42"/>
	</g>
</g>
<g>
	<g>
		<polyline class="st12" points="549.95,460.96 489.19,460.96 519.18,390.75 		"/>
		<polyline class="st12" points="549.95,434.79 489.19,434.79 519.18,364.57 		"/>
		<polyline class="st12" points="519.65,339.65 517.23,346.29 496.8,402.39 543.1,402.39 		"/>
		<rect x="515.69" y="460.96" class="st6" width="10.55" height="43.04"/>
	</g>
</g>
<g>
	<g>
		<polyline class="st12" points="1187,417.42 1144.26,417.42 1165.36,369.15 		"/>
		<polyline class="st12" points="1187,399.43 1144.26,399.43 1165.36,351.16 		"/>
		<polyline class="st12" points="1165.69,334.03 1163.99,338.6 1149.61,377.15 1182.18,377.15 		"/>
		<rect x="1162.91" y="417.42" class="st6" width="7.42" height="29.58"/>
	</g>
</g>
<path d="M1072,94"/>
<path d="M998,106c0,0,8-12,24-3c0,0,6.32-11,19.66-9c0,0-15.66,5-17.66,13C1024,107,1009,101,998,106z"/>
<path d="M1058.65,40.3c0,0,4.46-8.35,13.38-2.09c0,0,3.53-7.65,10.96-6.26c0,0-8.73,3.48-9.85,9.05
	C1073.15,41,1064.79,36.83,1058.65,40.3z"/>
<path d="M1065.51,76.94c0,0,5.04-12.72,15.11-3.18c0,0,3.98-11.66,12.38-9.54c0,0-9.86,5.3-11.12,13.78
	C1081.88,78,1072.43,71.64,1065.51,76.94z"/>
<path d="M968,52.24c0,0-6.04-12.72-18.11-3.18c0,0-4.77-11.66-14.84-9.54c0,0,11.82,5.3,13.33,13.78
	C948.38,53.3,959.7,46.93,968,52.24z"/>
<g class="st16">
	<polygon class="st12" points="862.06,412.88 854.49,420.08 860.01,420.08 865.81,412.96 	"/>
	<polygon class="st12" points="856.84,419.84 845.49,419.44 842,436 870,419.84 861.64,419.96 	"/>
	<polygon class="st12" points="850.3,427 838.95,426.6 835.46,443.16 863.46,427 855.1,427.12 	"/>
	<polygon class="st12" points="844.3,435 832.95,434.6 829.46,451.16 857.46,435 849.1,435.12 	"/>
</g>
<g class="st16">
	<polygon class="st12" points="748.3,357.55 743.82,359.52 747.09,359.52 750.52,357.58 	"/>
	<polygon class="st12" points="745.21,359.45 738.49,359.34 736.42,363.86 753,359.45 748.05,359.49 	"/>
	<polygon class="st12" points="741.34,361.41 734.62,361.3 732.55,365.82 749.13,361.41 744.18,361.44 	"/>
	<polygon class="st12" points="737.78,363.59 731.07,363.48 729,368 745.58,363.59 740.63,363.62 	"/>
</g>
<g>
	<polygon class="st9" points="599.53,430.42 591.05,437.12 597.24,437.12 603.73,430.49 	"/>
	<polygon class="st9" points="593.68,436.89 580.97,436.51 577.05,451.91 608.43,436.89 599.06,437 	"/>
	<polygon class="st9" points="586.35,443.54 573.64,443.17 569.72,458.56 601.1,443.54 591.73,443.65 	"/>
	<polygon class="st9" points="579.63,450.98 566.91,450.6 563,466 594.38,450.98 585.01,451.09 	"/>
</g>
<g class="st16">
	<polygon class="st12" points="421.73,395.39 416.71,399.08 420.37,399.08 424.22,395.43 	"/>
	<polygon class="st12" points="418.27,398.96 410.73,398.75 408.42,407.24 427,398.96 421.45,399.02 	"/>
	<polygon class="st12" points="413.92,402.63 406.39,402.42 404.07,410.9 422.66,402.63 417.11,402.69 	"/>
	<polygon class="st12" points="409.94,406.72 402.41,406.52 400.09,415 418.68,406.72 413.13,406.78 	"/>
</g>
<g class="st16">
	<polygon class="st12" points="343.63,331.57 340.72,332.13 341.45,332.95 344.11,332.15 	"/>
	<polygon class="st12" points="341.1,332.42 339.69,330.63 334.85,333.99 342.85,334.39 341.71,333.17 	"/>
	<polygon class="st12" points="338.33,333.12 336.93,331.33 332.09,334.69 340.09,335.09 338.94,333.87 	"/>
	<polygon class="st12" points="335.42,334.1 334.02,332.31 329.18,335.67 337.18,336.07 336.03,334.85 	"/>
</g>
<g class="st16">
	<polygon class="st12" points="253.14,364.8 245.19,371.58 250.7,371.88 256.88,365.08 	"/>
	<polygon class="st12" points="247.55,371.46 236.24,370.44 231.85,386.79 260.69,372.18 252.34,371.84 	"/>
	<polygon class="st12" points="240.63,378.25 229.32,377.23 224.93,393.58 253.77,378.97 245.41,378.63 	"/>
	<polygon class="st12" points="234.2,385.92 222.89,384.89 218.5,401.24 247.34,386.63 238.99,386.29 	"/>
</g>
<g class="st17">
	<polygon class="st12" points="1170.62,452.55 1179.32,461.29 1172.48,460.71 1165.97,452.24 	"/>
	<polygon class="st12" points="1176.43,460.78 1190.53,461.53 1193.29,480.15 1160.13,459.39 1170.48,460.4 	"/>
	<polygon class="st12" points="1183.86,469.36 1197.95,470.11 1200.72,488.73 1167.56,467.97 1177.9,468.98 	"/>
	<polygon class="st12" points="1190.54,478.81 1204.63,479.56 1207.4,498.18 1174.24,477.42 1184.58,478.43 	"/>
</g>
<g>
	<g>
		<polyline class="st6" points="1243.81,595 1167.87,595 1205.35,516.69 		"/>
		<polyline class="st6" points="1243.81,565.81 1167.87,565.81 1205.35,487.51 		"/>
		<polyline class="st6" points="1235.26,529.67 1177.38,529.67 1205.94,459.71 		"/>
		<rect x="1201" y="595" class="st6" width="13.19" height="48"/>
	</g>
</g>
<g class="st16">
	<polygon class="st12" points="1238.56,360.75 1243.54,366.44 1239.9,366.44 1236.09,360.81 	"/>
	<polygon class="st12" points="1241.99,366.25 1249.45,365.93 1251.75,379.02 1233.33,366.25 1238.83,366.34 	"/>
	<polygon class="st12" points="1246.29,371.91 1253.76,371.59 1256.05,384.68 1237.64,371.91 1243.13,372 	"/>
	<polygon class="st12" points="1250.24,378.23 1257.7,377.91 1260,391 1241.58,378.23 1247.08,378.32 	"/>
</g>
<g class="st16">
	<polygon class="st12" points="1306.39,339.76 1309.09,344 1307.12,344 1305.06,339.8 	"/>
	<polygon class="st12" points="1308.25,343.86 1312.29,343.62 1313.53,353.37 1303.57,343.86 1306.54,343.92 	"/>
	<polygon class="st12" points="1310.58,348.07 1314.62,347.83 1315.86,357.59 1305.89,348.07 1308.87,348.14 	"/>
	<polygon class="st12" points="1312.72,352.78 1316.76,352.54 1318,362.3 1308.03,352.78 1311.01,352.85 	"/>
</g>
<polygon class="st5" points="1171.91,254.35 1156.3,279.18 1177.61,292.21 1156.3,304 1226,303.12 "/>
<polygon class="st5" points="1285.2,217.35 1246.3,259.68 1299.41,281.89 1246.3,302 1420,300.49 "/>
<polygon class="st4" points="1314.5,322.7 1479.29,224 1649.54,324.49 "/>
<polygon class="st11" points="1497.5,234.72 1449.9,274.28 1448.12,280.37 1431.15,287.06 1355,322.92 1649.54,324.49 "/>
<path class="st1" d="M696.13,130.41c0.92-5.18,4.26-15.39,16.22-14.74c0.18,0.01,0.35,0.04,0.52,0.09
	c1.49,0.42,8.97,2.94,15.27,12.16c0.7,1.02,1.83,1.43,2.89,1.06c3.44-1.23,11.05-2.95,14.09,4.36c0.58,1.39,1.93,2.03,3.18,1.58
	c0.66-0.24,1.42-0.4,2.18-0.38c3.49,0.12,3.29,6.47-0.2,6.47h-75.25c-1.2,0-2.29-0.93-2.6-2.31c-0.73-3.3,0.83-8.68,20.71-5.79
	C694.53,133.1,695.84,132.03,696.13,130.41z"/>
<path class="st1" d="M1616.11,97.3c1.41-8.65,6.5-25.7,24.78-24.62c0.27,0.02,0.53,0.06,0.79,0.14c2.28,0.71,13.71,4.91,23.33,20.31
	c1.06,1.7,2.8,2.39,4.41,1.76c5.26-2.05,16.89-4.92,21.54,7.27c0.88,2.32,2.96,3.38,4.86,2.64c1.02-0.4,2.16-0.68,3.33-0.63
	c5.33,0.19,5.03,10.81-0.3,10.81h-114.98c-1.83,0-3.5-1.55-3.97-3.86c-1.11-5.52,1.27-14.5,31.64-9.67
	C1613.66,101.81,1615.67,100.03,1616.11,97.3z"/>
<path class="st1" d="M1105.83,107.26c0,0,32.02-42.22,111.96-26.14c0,0,27.07,15.41,17.28,22.12c0,0,27.41-8.71,25.45,4.02
	c0,0,37.2-2.01,28.39,14.74H1098"/>
<g class="st16">
	<polygon class="st12" points="837.89,337.61 835.53,338.63 837.25,338.63 839.06,337.62 	"/>
	<polygon class="st12" points="836.26,338.59 832.72,338.54 831.63,340.87 840.36,338.59 837.76,338.61 	"/>
	<polygon class="st12" points="834.22,339.6 830.68,339.54 829.59,341.87 838.32,339.6 835.72,339.62 	"/>
	<polygon class="st12" points="832.35,340.73 828.81,340.67 827.72,343 836.45,340.73 833.84,340.74 	"/>
</g>
<polygon class="st5" points="1073.08,258.35 1057.47,283.18 1078.78,296.21 1057.47,308 1127.17,307.12 "/>
<path class="st18" d="M1358.28,320.58l-300.17,5.43c0,0-0.88-2.34,1.91-3.5c2.79-1.16,2.56-2.84,2.32-6.62c0,0-0.54-4.05,1.14-0.07
	c1.68,3.98,1.41,1.6,1.37-0.93c-0.04-2.53,0.5-8.9,0.5-8.9l1.91-5.33l1.83-0.82l2.86,1.93l2.09-5.76c0,0,0.28-3.4,5.96,2.44
	c0,0,2.53,5.04,3.11-3.93c0,0,0.81-7.86,7.09,4.7c0,0,2.08,5.78,3.21-1.05c0,0,6.05-15.59,11.56-3.55c0,0,5.09,1.5,5.89-5.23
	c0,0,1.23-6.48,5.33,2.83c0,0,0.31-4.24,2.14,1.55s2.03,1,3-0.47c0.97-1.47,2.63-2.42,3.7,0.33c1.07,2.75,2.45-0.15,3.81-1.93
	c1.36-1.78,3-3.01,4.28-0.83s5.74,13.15,15.65-0.99c9.91-14.14,10.36-1.78,16.12,1.24c5.76,3.02,5.68,32.89,26.48,14.95
	c0,0,1.95-3.61,3.94,1.9c1.98,5.51,4.9-0.1,5.95-2.52s1.24-4.48,2.61-0.16c1.36,4.32,2.3,1.46,3.11-0.2s1.09,2.83,2.62,2.73
	s4.04-1.76,5.58-1.48s3.34,6.17,4.74,4.21c1.4-1.97,2.25-5.77,3.86-2.87s0.92,0.69,4.01,1.25c3.09,0.56,3.12,2.81,3.92,5.01
	c0.79,2.2-1.14,2.7,2.24,0.98c3.38-1.72,4.55-7.42,4.99-2.19c0.44,5.23,6.79,0.32,7.61-0.48c0.82-0.8-1.58,0.85,0.82-0.8
	s1.25-2.71,4.46-0.28c3.21,2.43,1.83,4.77,3.73,2.02c1.9-2.75-0.03,3.01,4.39,0.47c4.42-2.53,2.28-5.4,4.85-4.44
	s-0.63,3.79,2.85,5.45c3.49,1.66,0.59,0.71,4.07,0.49c3.48-0.22,0.71-0.8,4.24-0.27s3.35,1.29,5.23,1.55
	c1.87,0.26,4.08,2.37,5.06,2.31c0.98-0.06-0.69,1.17,3.15-0.2c3.84-1.37,2.79-2.43,4.36-1.78c1.57,0.65,3.9,1.26,3.9,1.26l1,0.31
	l3.38,1.66L1358.28,320.58z"/>
<polygon class="st5" points="854.39,242.38 877.42,266.44 875.29,269.02 880.02,271.09 882.17,275.97 898,284.06 882.02,296.33 
	865.8,303.31 800.13,305 772.61,305 "/>
<path class="st19" d="M-18.29,336l901.04-15.46c0,0,2.21-2.74-6.38-3.86c-8.59-1.13-8.22-3.06-8.22-7.41c0,0,0.86-4.67-3.44,0
	c-4.29,4.67-3.93,1.93-4.29-0.97c-0.37-2.9-3.19-10.14-3.19-10.14l-6.75-5.96l-5.64-0.81l-8.22,2.42l-7.36-6.44
	c0,0-1.47-3.86-17.42,3.22c0,0-6.63,5.95-10.06-4.27c0,0-3.93-8.93-20.37,5.88c0,0-5.15,6.76-9.82-0.97c0,0-21.1-17.39-35.33-3.22
	c0,0-14.97,2.09-18.65-5.56c0,0-4.91-7.32-15.46,3.63c0,0-1.72-4.83-6.13,1.93c-4.42,6.76-5.89,1.29-9.08-0.32
	c-3.19-1.61-8.34-2.58-11.04,0.64c-2.7,3.22-7.36,0-11.78-1.93c-4.42-1.93-9.57-3.22-13.01-0.64c-3.44,2.58-14.72,15.46-47.11,0
	c-32.39-15.46-31.41-1.29-48.09,2.58c-16.69,3.86-10.8,38.02-76.56,19.01c0,0-6.54-3.98-11.45,2.46
	c-4.91,6.44-14.72,0.24-18.32-2.46c-3.6-2.7-4.58-5.03-7.85,0c-3.27,5.03-6.62,1.84-9.36,0c-2.74-1.84-2.74,3.32-7.33,3.32
	c-4.58,0-12.43-1.72-17.01-1.29c-4.58,0.43-8.83,7.3-13.41,5.15c-4.58-2.15-7.85-6.44-12.11-3.01c-4.25,3.44-2.62,0.86-11.78,1.72
	c-9.16,0.86-8.83,3.43-10.8,6.01c-1.96,2.58,3.93,3.01-6.54,1.29c-10.47-1.72-15.05-8.16-15.38-2.15c-0.33,6.01-20.28,0.86-22.9,0
	c-2.62-0.86,4.91,0.86-2.62-0.86c-7.52-1.72-4.25-3.01-13.41,0c-9.16,3.01-4.58,5.58-10.8,2.58c-6.22-3.01,0.65,3.43-13.09,0.86
	c-13.74-2.58-7.85-6.01-15.38-4.72c-7.53,1.29,2.62,4.29-7.53,6.44c-10.14,2.15-1.64,0.86-12.11,0.86c-10.47,0-2.29-0.86-12.76,0
	c-10.47,0.86-9.82,1.72-15.38,2.15c-5.56,0.43-11.78,3.01-14.72,3.01c-2.94,0,2.29,1.29-9.49,0c-11.78-1.29-8.83-2.58-13.41-1.72
	c-4.58,0.86-11.45,1.72-11.45,1.72l-2.94,0.43l-9.82,2.15L-18.29,336z"/>
<path class="st18" d="M612.28,337l409.61-15.38c0,0,1-2.72-2.9-3.84c-3.9-1.12-3.74-3.04-3.74-7.37c0,0,0.39-4.65-1.56,0
	c-1.95,4.65-1.78,1.92-1.95-0.96c-0.17-2.88-1.45-10.09-1.45-10.09l-3.07-5.93l-2.57-0.8l-3.74,2.4l-3.35-6.41
	c0,0-0.67-3.84-7.92,3.2c0,0-3.01,5.92-4.57-4.25c0,0-1.78-8.88-9.26,5.85c0,0-2.34,6.73-4.46-0.96c0,0-9.59-17.3-16.06-3.2
	c0,0-6.8,2.07-8.48-5.53c0,0-2.23-7.28-7.03,3.61c0,0-0.78-4.81-2.79,1.92c-2.01,6.73-2.68,1.28-4.13-0.32
	c-1.45-1.6-3.79-2.56-5.02,0.64s-3.35,0-5.35-1.92s-4.35-3.2-5.91-0.64c-1.56,2.56-6.69,15.38-21.42,0
	c-14.72-15.38-14.28-1.28-21.86,2.56c-7.59,3.84-4.91,37.82-34.8,18.91c0,0-2.97-3.96-5.21,2.44c-2.23,6.41-6.69,0.24-8.33-2.44
	c-1.64-2.68-2.08-5.01-3.57,0c-1.49,5.01-3.01,1.83-4.26,0s-1.25,3.3-3.33,3.3s-5.65-1.71-7.73-1.28c-2.08,0.43-4.02,7.26-6.1,5.13
	s-3.57-6.41-5.5-2.99c-1.93,3.42-1.19,0.85-5.35,1.71c-4.16,0.85-4.02,3.42-4.91,5.98c-0.89,2.56,1.78,2.99-2.97,1.28
	c-4.76-1.71-6.84-8.12-6.99-2.14s-9.22,0.85-10.41,0c-1.19-0.85,2.23,0.85-1.19-0.85c-3.42-1.71-1.93-2.99-6.1,0
	c-4.16,2.99-2.08,5.55-4.91,2.56s0.3,3.42-5.95,0.85c-6.25-2.56-3.57-5.98-6.99-4.7c-3.42,1.28,1.19,4.27-3.42,6.41
	c-4.61,2.14-0.74,0.85-5.5,0.85s-1.04-0.85-5.8,0c-4.76,0.85-4.46,1.71-6.99,2.14c-2.53,0.43-5.35,2.99-6.69,2.99
	c-1.34,0,1.04,1.28-4.31,0c-5.35-1.28-4.02-2.56-6.1-1.71s-5.21,1.71-5.21,1.71l-1.34,0.43l-4.46,2.14L612.28,337z"/>
<path class="st6" d="M759.84,619.55c0,0,1.16-31.9,90.08-35.45c0,0,28.94,13.98,37.43-14.28c0,0,38.49-24.27,64.49,9.73
	c0,0-3.19,18,29.9,29l16.47,37.57L759.84,619.55z"/>
<path class="st6" d="M850.36,622.43c0,0,1.15-28.3,88.67-31.45c0,0,28.48,12.41,36.84-12.67c0,0,37.89-21.53,63.48,8.64
	c0,0-3.14,15.97,29.44,25.73L1085,646L850.36,622.43z"/>
<path class="st6" d="M998.36,616.23c0,0,1.16-30.94,90.08-34.38c0,0,28.94,13.56,37.43-13.85c0,0,38.49-23.53,64.49,9.44
	c0,0-3.19,17.46,29.9,28.13l16.47,36.44L998.36,616.23z"/>
<path class="st6" d="M1231.84,606.55c0,0,1.16-31.9,90.08-35.45c0,0,28.94,13.98,37.43-14.28c0,0,38.49-24.27,64.49,9.73
	c0,0-3.19,18,29.9,29l16.47,37.57L1231.84,606.55z"/>
<path class="st6" d="M1322.36,615.99c0,0,1.16-31.9,90.08-35.45c0,0,28.94,13.98,37.43-14.28c0,0,38.49-24.27,64.49,9.73
	c0,0-3.19,18,29.9,29l16.47,37.57L1322.36,615.99z"/>
<path class="st6" d="M1470.36,604.99c0,0,1.16-31.9,90.08-35.45c0,0,28.94,13.98,37.43-14.28c0,0,38.49-24.27,64.49,9.73
	c0,0-3.19,18,29.9,29l16.47,37.57L1470.36,604.99z"/>
<g>
	<g>
		<polyline class="st12" points="877,382.82 849.25,382.82 862.95,336.85 		"/>
		<polyline class="st12" points="877,365.69 849.25,365.69 862.95,319.72 		"/>
		<polyline class="st12" points="873.87,344.47 852.73,344.47 863.16,303.4 		"/>
		<rect x="861.36" y="382.82" class="st6" width="4.82" height="28.18"/>
	</g>
</g>
<g>
	<g>
		<polyline class="st12" points="843,330.52 835,330.52 838.95,319.42 		"/>
		<polyline class="st12" points="843,326.38 835,326.38 838.95,315.28 		"/>
		<polyline class="st12" points="839.01,311.34 838.69,312.39 836,321.26 842.1,321.26 		"/>
		<rect x="838.49" y="330.52" class="st6" width="1.39" height="6.81"/>
	</g>
</g>
<g>
	<g>
		<polyline class="st12" points="758,343.8 742.83,343.8 750.32,322.27 		"/>
		<polyline class="st12" points="758,335.77 742.83,335.77 750.32,314.24 		"/>
		<polyline class="st12" points="750.43,306.6 749.83,308.64 744.73,325.84 756.29,325.84 		"/>
		<rect x="749.45" y="343.8" class="st6" width="2.64" height="13.2"/>
	</g>
</g>
<g>
	<g>
		<polyline class="st20" points="1072,326.55 1066.64,326.55 1069.29,312.76 		"/>
		<polyline class="st20" points="1072,321.41 1066.64,321.41 1069.29,307.62 		"/>
		<polyline class="st20" points="1069.33,302.72 1069.11,304.03 1067.31,315.04 1071.4,315.04 		"/>
		<rect x="1068.98" y="326.55" class="st6" width="0.93" height="8.45"/>
	</g>
</g>
<g>
	<g>
		<polyline class="st12" points="1390,482.77 1303,482.77 1345.94,384.51 		"/>
		<polyline class="st12" points="1390,446.14 1303,446.14 1345.94,347.88 		"/>
		<polyline class="st12" points="1380.2,400.8 1313.89,400.8 1346.62,313 		"/>
		<rect x="1340.95" y="482.77" class="st6" width="15.11" height="60.23"/>
	</g>
</g>
<g>
	<g>
		<polyline class="st12" points="1243.05,343.02 1226.26,343.02 1234.55,320.66 		"/>
		<polyline class="st12" points="1243.05,334.69 1226.26,334.69 1234.55,312.32 		"/>
		<polyline class="st12" points="1234.68,304.38 1234.01,306.5 1228.36,324.36 1241.16,324.36 		"/>
		<rect x="1233.58" y="343.02" class="st6" width="2.92" height="13.71"/>
	</g>
</g>
<g>
	<g>
		<polyline class="st12" points="351,325.37 343.99,325.37 347.45,314.55 		"/>
		<polyline class="st12" points="351,321.34 343.99,321.34 347.45,310.52 		"/>
		<polyline class="st12" points="347.5,306.68 347.22,307.71 344.87,316.35 350.21,316.35 		"/>
		<rect x="347.05" y="325.37" class="st6" width="1.22" height="6.63"/>
	</g>
</g>
<g>
	<g>
		<polyline class="st12" points="477.58,330.91 470.57,330.91 474.03,320.1 		"/>
		<polyline class="st12" points="477.58,326.88 470.57,326.88 474.03,316.07 		"/>
		<polyline class="st12" points="474.09,312.23 473.81,313.25 471.45,321.89 476.79,321.89 		"/>
		<rect x="473.63" y="330.91" class="st6" width="1.22" height="6.63"/>
	</g>
</g>
<g>
	<g>
		<polyline class="st12" points="630,325.5 619.71,325.5 624.79,309.99 		"/>
		<polyline class="st12" points="630,319.72 619.71,319.72 624.79,304.21 		"/>
		<polyline class="st12" points="624.87,298.71 624.46,300.18 620.99,312.56 628.84,312.56 		"/>
		<rect x="624.2" y="325.5" class="st6" width="1.79" height="9.5"/>
	</g>
</g>
<g>
	<g>
		<polyline class="st12" points="269,342.33 252.4,342.33 260.59,311.88 		"/>
		<polyline class="st12" points="269,330.98 252.4,330.98 260.59,300.53 		"/>
		<polyline class="st12" points="260.72,289.72 260.06,292.6 254.48,316.93 267.13,316.93 		"/>
		<rect x="259.64" y="342.33" class="st6" width="2.88" height="18.67"/>
	</g>
</g>
<g>
	<g>
		<polyline class="st12" points="215,412.06 162.96,412.06 188.64,342.01 		"/>
		<polyline class="st12" points="215,385.95 162.96,385.95 188.64,315.9 		"/>
		<polyline class="st12" points="189.05,291.04 186.98,297.67 169.47,353.62 209.14,353.62 		"/>
		<rect x="185.66" y="412.06" class="st6" width="9.04" height="42.94"/>
	</g>
</g>
<g>
	<g>
		<polyline class="st6" points="999,597.99 923.06,597.99 960.54,514.1 		"/>
		<polyline class="st6" points="999,566.72 923.06,566.72 960.54,482.83 		"/>
		<polyline class="st6" points="990.45,528 932.57,528 961.14,453.05 		"/>
		<rect x="956.19" y="597.99" class="st6" width="13.19" height="51.42"/>
	</g>
</g>
<path class="st21" d="M801,522.55c0,0,1.6-12.24,15.2-17.73c0,0,16.65,7.89,21.66-2.53c0,0,9.97-12.23,32.22,0.5
	c0,0,9.32,2.86,8.48,10.13c0,0,0,8.75,2.39,10.24c0,0,2.39,5.59,0,8.38s5.48,5.02-13.35,6.51c-18.83,1.49-66.46-5.96-65.9-9.87
	C802.25,524.28,801,522.55,801,522.55z"/>
<path d="M858.82,38.01c0,0-6.04-12.72-18.11-3.18c0,0-4.77-11.66-14.84-9.54c0,0,11.82,5.3,13.33,13.78
	C839.2,39.07,850.52,32.7,858.82,38.01z"/>
<g>
	<g>
		<polyline class="st12" points="1310,329.69 1299.37,329.69 1304.62,316.14 		"/>
		<polyline class="st12" points="1310,324.64 1299.37,324.64 1304.62,311.09 		"/>
		<polyline class="st12" points="1304.7,306.28 1304.28,307.56 1300.7,318.39 1308.8,318.39 		"/>
		<rect x="1304.01" y="329.69" class="st6" width="1.85" height="8.31"/>
	</g>
</g>
<path class="st9" d="M1344,340.66l574.85-12.86c0,0,1.34-2.28-3.87-3.21c-5.21-0.94-4.99-2.54-4.99-6.16c0,0,0.52-3.88-2.08,0
	c-2.61,3.88-2.38,1.61-2.61-0.8c-0.22-2.41-1.94-8.44-1.94-8.44l-4.09-4.96l-3.42-0.67l-4.99,2.01l-4.47-5.36
	c0,0-0.89-3.21-10.57,2.68c0,0-4.02,4.95-6.1-3.55c0,0-2.38-7.43-12.36,4.89c0,0-3.13,5.62-5.96-0.8c0,0-12.8-14.46-21.44-2.68
	c0,0-9.08,1.73-11.31-4.62c0,0-2.98-6.09-9.38,3.02c0,0-1.04-4.02-3.72,1.61c-2.68,5.62-3.57,1.07-5.51-0.27s-5.06-2.14-6.7,0.54
	s-4.47,0-7.15-1.61c-2.68-1.61-5.81-2.68-7.89-0.54c-2.08,2.14-8.93,12.86-28.58,0c-19.65-12.86-19.06-1.07-29.18,2.14
	s-6.55,31.63-46.45,15.81c0,0-3.97-3.31-6.95,2.04c-2.98,5.36-8.93,0.2-11.12-2.04c-2.18-2.24-2.78-4.19-4.76,0
	c-1.99,4.19-4.01,1.53-5.68,0c-1.67-1.53-1.67,2.76-4.44,2.76c-2.78,0-7.54-1.43-10.32-1.07c-2.78,0.36-5.36,6.07-8.14,4.29
	c-2.78-1.79-4.76-5.36-7.34-2.5c-2.58,2.86-1.59,0.71-7.15,1.43c-5.56,0.71-5.36,2.86-6.55,5c-1.19,2.14,2.38,2.5-3.97,1.07
	c-6.35-1.43-9.13-6.79-9.33-1.79c-0.2,5-12.31,0.71-13.9,0s2.98,0.71-1.59-0.71c-4.57-1.43-2.58-2.5-8.14,0
	c-5.56,2.5-2.78,4.64-6.55,2.14c-3.77-2.5,0.4,2.86-7.94,0.71s-4.76-5-9.33-3.93c-4.57,1.07,1.59,3.57-4.57,5.36
	s-0.99,0.71-7.34,0.71c-6.35,0-1.39-0.71-7.74,0c-6.35,0.71-5.96,1.43-9.33,1.79c-3.37,0.36-7.15,2.5-8.93,2.5
	c-1.79,0,1.39,1.07-5.76,0c-7.15-1.07-5.36-2.14-8.14-1.43c-2.78,0.71-6.95,1.43-6.95,1.43l-1.79,0.36l-34.11,1.79L1344,340.66z"/>
<g>
	<g>
		<polyline class="st12" points="1554,333.15 1538.07,333.15 1545.93,313.83 		"/>
		<polyline class="st12" points="1554,325.95 1538.07,325.95 1545.93,306.63 		"/>
		<polyline class="st12" points="1546.06,299.77 1545.42,301.6 1540.07,317.03 1552.21,317.03 		"/>
		<rect x="1545.02" y="333.15" class="st6" width="2.77" height="11.85"/>
	</g>
</g>
<g>
	<g>
		<polyline class="st12" points="1433,357.46 1417.37,357.46 1425.09,335.36 		"/>
		<polyline class="st12" points="1433,349.22 1417.37,349.22 1425.09,327.12 		"/>
		<polyline class="st12" points="1425.21,319.28 1424.58,321.37 1419.33,339.02 1431.24,339.02 		"/>
		<rect x="1424.19" y="357.46" class="st6" width="2.71" height="13.54"/>
	</g>
</g>
<g>
	<g>
		<polyline class="st12" points="1676,336.03 1660.77,336.03 1668.29,313.24 		"/>
		<polyline class="st12" points="1676,327.53 1660.77,327.53 1668.29,304.74 		"/>
		<polyline class="st12" points="1668.41,296.65 1667.8,298.81 1662.68,317.01 1674.28,317.01 		"/>
		<rect x="1667.42" y="336.03" class="st6" width="2.64" height="13.97"/>
	</g>
</g>
<g>
	<g>
		<polyline class="st12" points="1586,359.51 1567.48,359.51 1576.62,334.23 		"/>
		<polyline class="st12" points="1586,350.08 1567.48,350.08 1576.62,324.81 		"/>
		<polyline class="st12" points="1576.76,315.83 1576.03,318.23 1569.8,338.42 1583.91,338.42 		"/>
		<rect x="1575.56" y="359.51" class="st6" width="3.22" height="15.49"/>
	</g>
</g>
<g>
	<g>
		<polyline class="st12" points="1492,408.6 1459.83,408.6 1475.71,376.96 		"/>
		<polyline class="st12" points="1492,396.81 1459.83,396.81 1475.71,365.16 		"/>
		<polyline class="st12" points="1475.96,353.93 1474.68,356.92 1463.86,382.2 1488.37,382.2 		"/>
		<rect x="1473.86" y="408.6" class="st6" width="5.59" height="19.4"/>
	</g>
</g>
<g>
	<g>
		<polyline class="st12" points="1763,350.18 1736.68,350.18 1749.67,324.37 		"/>
		<polyline class="st12" points="1763,340.56 1736.68,340.56 1749.67,314.75 		"/>
		<polyline class="st12" points="1749.87,305.59 1748.83,308.03 1739.97,328.65 1760.03,328.65 		"/>
		<rect x="1748.16" y="350.18" class="st6" width="4.57" height="15.82"/>
	</g>
</g>
<g>
	<g>
		<polyline class="st12" points="1840,414.66 1802.6,414.66 1821.06,379.83 		"/>
		<polyline class="st12" points="1840,401.68 1802.6,401.68 1821.06,366.86 		"/>
		<polyline class="st12" points="1821.35,354.49 1819.86,357.79 1807.29,385.61 1835.79,385.61 		"/>
		<rect x="1818.92" y="414.66" class="st6" width="6.5" height="21.34"/>
	</g>
</g>
<path class="st21" d="M967.09,395.35c0,0,0.59-4.4,5.61-6.37c0,0,6.15,2.84,8-0.91c0,0,3.68-4.4,11.9,0.18c0,0,3.44,1.03,3.13,3.64
	c0,0,0,3.15,0.88,3.68c0,0,0.88,2.01,0,3.01c-0.88,1,2.02,1.81-4.93,2.34c-6.95,0.54-24.54-2.14-24.34-3.55
	C967.55,395.98,967.09,395.35,967.09,395.35z"/>
<path class="st21" d="M1179.02,344.03c0,0,0.3-3.09,2.81-4.48c0,0,3.08,1.99,4-0.64c0,0,1.84-3.09,5.96,0.13
	c0,0,1.72,0.72,1.57,2.56c0,0,0,2.21,0.44,2.59c0,0,0.44,1.41,0,2.12s1.01,1.27-2.47,1.65s-12.29-1.51-12.18-2.49
	S1179.02,344.03,1179.02,344.03z"/>
<path class="st21" d="M560,358.54c0,0,0.4-3.47,3.75-5.03c0,0,4.11,2.24,5.35-0.72c0,0,2.46-3.47,7.96,0.14c0,0,2.3,0.81,2.09,2.87
	c0,0,0,2.48,0.59,2.91c0,0,0.59,1.59,0,2.38c-0.59,0.79,1.35,1.43-3.3,1.85s-16.41-1.69-16.27-2.8
	C560.31,359.03,560,358.54,560,358.54z"/>
<path class="st21" d="M651.22,437.87c0,0,0.49-2.44,4.65-3.53c0,0,5.09,1.57,6.63-0.5c0,0,3.05-2.44,9.86,0.1
	c0,0,2.85,0.57,2.59,2.02c0,0,0,1.74,0.73,2.04c0,0,0.73,1.11,0,1.67c-0.73,0.56,1.68,1-4.08,1.3c-5.76,0.3-20.33-1.19-20.16-1.97
	C651.6,438.22,651.22,437.87,651.22,437.87z"/>
<path class="st21" d="M1636.81,389.92c0,0,0.59-4.4,5.61-6.37c0,0,6.15,2.84,8-0.91c0,0,3.68-4.4,11.9,0.18c0,0,3.44,1.03,3.13,3.64
	c0,0,0,3.15,0.88,3.68c0,0,0.88,2.01,0,3.01c-0.88,1,2.02,1.81-4.93,2.34s-24.54-2.14-24.34-3.55
	C1637.27,390.55,1636.81,389.92,1636.81,389.92z"/>
<path class="st3" d="M266.39,432.81c0,0-1.41-10.74-15.47-2.98c0,0-2.52,2.83-0.82,3.59c0,0-0.68,2.65-3.73,0.76
	c0,0-3.05,1.7,0,2.55s20.64-0.58,20.64-0.58S265.37,432.58,266.39,432.81z"/>
<path class="st15" d="M265,433.56c0,0-0.55-6.59-6.99-5.07c0,0-8.72,1.52-7.15,5.07c0,0,0.6,1.52-0.86,1.52c0,0-0.59,2.03,14.99,0
	V433.56z"/>
<path class="st3" d="M1734.27,405.56c0,0,2.49-13.95,27.3-3.87c0,0,4.44,3.68,1.45,4.66c0,0,1.2,3.44,6.59,0.98
	c0,0,5.39,2.21,0,3.32s-36.43-0.75-36.43-0.75S1736.07,405.27,1734.27,405.56z"/>
<path class="st15" d="M1736.72,406.53c0,0,0.98-8.56,12.33-6.59c0,0,15.4,1.98,12.61,6.59c0,0-1.05,1.98,1.52,1.98
	c0,0,1.04,2.63-26.45,0V406.53z"/>
<path class="st15" d="M1407,419.77c0,0,0.98-8.56,12.33-6.59c0,0,15.4,1.98,12.61,6.59c0,0-1.05,1.98,1.52,1.98
	c0,0,1.04,2.63-26.45,0V419.77z"/>
<g class="st16">
	<polygon class="st12" points="1429.69,375.76 1434.17,381.26 1430.9,381.26 1427.47,375.82 	"/>
	<polygon class="st12" points="1432.78,381.08 1439.5,380.77 1441.57,393.42 1424.99,381.08 1429.94,381.16 	"/>
	<polygon class="st12" points="1436.66,386.54 1443.38,386.24 1445.45,398.89 1428.86,386.54 1433.81,386.63 	"/>
	<polygon class="st12" points="1440.21,392.66 1446.93,392.35 1449,405 1432.42,392.66 1437.37,392.74 	"/>
</g>
<g class="st16">
	<polygon class="st12" points="1480.37,439.5 1489.1,449.94 1482.73,449.94 1476.04,439.61 	"/>
	<polygon class="st12" points="1486.39,449.59 1499.49,449 1503.52,473.02 1471.2,449.59 1480.85,449.76 	"/>
	<polygon class="st12" points="1493.94,459.97 1507.04,459.38 1511.07,483.4 1478.75,459.97 1488.4,460.14 	"/>
	<polygon class="st12" points="1500.87,471.57 1513.97,470.98 1518,495 1485.68,471.57 1495.33,471.74 	"/>
</g>
<path class="st21" d="M1581.49,508.4c0,0-3.15-25.58-29.92-37.06c0,0-32.79,16.49-42.64-5.28c0,0-19.64-25.56-63.44,1.05
	c0,0-18.35,5.98-16.69,21.17c0,0,0,18.29-4.7,21.41c0,0-4.7,11.69,0,17.52s-10.79,10.5,26.28,13.62
	c37.07,3.11,130.86-12.46,129.75-20.63S1581.49,508.4,1581.49,508.4z"/>
<g>
	<g>
		<polyline class="st6" points="1588,559.99 1512.06,559.99 1549.54,476.1 		"/>
		<polyline class="st6" points="1588,528.72 1512.06,528.72 1549.54,444.83 		"/>
		<polyline class="st6" points="1579.45,490 1521.57,490 1550.14,415.05 		"/>
		<rect x="1545.19" y="559.99" class="st6" width="13.19" height="51.42"/>
	</g>
</g>
<g class="st16">
	<polygon class="st12" points="1548.74,348.5 1552.28,351.41 1549.7,351.41 1546.99,348.53 	"/>
	<polygon class="st12" points="1551.18,351.32 1556.5,351.15 1558.13,357.86 1545.03,351.32 1548.94,351.36 	"/>
	<polygon class="st12" points="1554.25,354.22 1559.56,354.05 1561.19,360.76 1548.09,354.22 1552,354.26 	"/>
	<polygon class="st12" points="1557.05,357.46 1562.37,357.29 1564,364 1550.89,357.46 1554.81,357.5 	"/>
</g>
<g class="st16">
	<polygon class="st12" points="1578.9,378.78 1583.56,384.09 1580.16,384.09 1576.59,378.83 	"/>
	<polygon class="st12" points="1582.12,383.91 1589.11,383.61 1591.27,395.82 1574,383.91 1579.15,383.99 	"/>
	<polygon class="st12" points="1586.15,389.19 1593.15,388.89 1595.3,401.1 1578.03,389.19 1583.19,389.27 	"/>
	<polygon class="st12" points="1589.85,395.09 1596.85,394.79 1599,407 1581.73,395.09 1586.89,395.17 	"/>
</g>
<g>
	<g>
		<polyline class="st12" points="1629,437.91 1593.37,437.91 1610.96,387.19 		"/>
		<polyline class="st12" points="1629,419 1593.37,419 1610.96,368.28 		"/>
		<polyline class="st12" points="1611.23,350.28 1609.81,355.08 1597.83,395.6 1624.99,395.6 		"/>
		<rect x="1608.91" y="437.91" class="st6" width="6.19" height="31.09"/>
	</g>
</g>
<g class="st17">
	<polygon class="st12" points="1678.83,350.84 1686.43,351.54 1684.1,354.03 1677.3,352.57 	"/>
	<polygon class="st12" points="1685.29,352.46 1689.83,347.11 1701.44,355 1679.74,358.4 1683.34,354.69 	"/>
	<polygon class="st12" points="1692.43,353.6 1696.97,348.25 1708.58,356.14 1686.88,359.54 1690.48,355.83 	"/>
	<polygon class="st12" points="1699.86,355.46 1704.39,350.11 1716,358 1694.3,361.4 1697.9,357.7 	"/>
</g>
<g class="st17">
	<polygon class="st12" points="1762.12,369.29 1771.39,371.97 1767.49,374.48 1759.52,371.06 	"/>
	<polygon class="st12" points="1769.6,372.83 1777.38,367.34 1788.88,379.82 1760.31,378.8 1766.27,375.11 	"/>
	<polygon class="st12" points="1778.12,375.94 1785.9,370.46 1797.4,382.93 1768.83,381.91 1774.79,378.22 	"/>
	<polygon class="st12" points="1786.72,380.01 1794.5,374.52 1806,387 1777.43,385.98 1783.39,382.29 	"/>
</g>
<linearGradient id="SVGID_00000111173726412173684460000015030209306382885305_" gradientUnits="userSpaceOnUse" x1="953.6439" y1="421.7486" x2="961.6439" y2="421.7486" gradientTransform="matrix(0.8833 -0.4687 0.4687 0.8833 -81.2236 479.635)">
	<stop  offset="0" style="stop-color:#FFFFFF;stop-opacity:0.6"/>
	<stop  offset="0.1759" style="stop-color:#DEEBF5;stop-opacity:0.725"/>
	<stop  offset="0.3532" style="stop-color:#C2DBED;stop-opacity:0.851"/>
	<stop  offset="0.4569" style="stop-color:#B8D5EA;stop-opacity:0.9247"/>
</linearGradient>
<path style="fill:url(#SVGID_00000111173726412173684460000015030209306382885305_);" d="M964.87,406.53L964.87,406.53
	c-1.94,1.03-4.38,0.28-5.41-1.66v0c-1.03-1.94-0.28-4.38,1.66-5.41l0,0c1.94-1.03,4.38-0.28,5.41,1.66v0
	C967.56,403.07,966.82,405.5,964.87,406.53z"/>
<g>
	<g>
		<polyline class="st12" points="432,372.99 415.83,372.99 423.81,340.35 		"/>
		<polyline class="st12" points="432,360.83 415.83,360.83 423.81,328.18 		"/>
		<polyline class="st12" points="423.94,316.6 423.29,319.69 417.85,345.76 430.18,345.76 		"/>
		<rect x="422.88" y="372.99" class="st6" width="2.81" height="20.01"/>
	</g>
</g>
<rect x="454" y="334" class="st23" width="1" height="32"/>
<path class="st24" d="M454.5,335L454.5,335c-0.83,0-1.5-0.67-1.5-1.5l0,0c0-0.83,0.67-1.5,1.5-1.5l0,0c0.83,0,1.5,0.67,1.5,1.5l0,0
	C456,334.33,455.33,335,454.5,335z"/>
<path class="st25" d="M455.5,365h-2c-0.27,0-0.5,0.23-0.5,0.5l0,0c0,0.27,0.23,0.5,0.5,0.5h2c0.27,0,0.5-0.23,0.5-0.5l0,0
	C456,365.23,455.77,365,455.5,365z"/>
<path class="st26" d="M455,335c0,0,1.11,2.09,3.55,2.54c0,0,3.67,0.54,4.56,0c0,0,1.88-0.46,3.38,0c0,0,1.51,0.46,2.51,2.46
	c0,0-4-2-6,0c0,0-2,1-5,1c0,0-2-0.23-3-1.11V335z"/>
<g>
	<g>
		<polyline class="st12" points="335,380.42 313.85,380.42 324.29,343.59 		"/>
		<polyline class="st12" points="335,366.7 313.85,366.7 324.29,329.87 		"/>
		<polyline class="st12" points="324.46,316.79 323.61,320.28 316.5,349.7 332.62,349.7 		"/>
		<rect x="323.08" y="380.42" class="st6" width="3.67" height="22.58"/>
	</g>
</g>
</svg>
