<?xml version="1.0" encoding="utf-8"?>
<!-- Generator: Adobe Illustrator 26.0.1, SVG Export Plug-In . SVG Version: 6.00 Build 0)  -->
<svg version="1.1" id="Layer_1" xmlns="http://www.w3.org/2000/svg" xmlns:xlink="http://www.w3.org/1999/xlink" x="0px" y="0px"
	 viewBox="0 0 646.12 622.78" style="enable-background:new 0 0 646.12 622.78;" xml:space="preserve">
<style type="text/css">
	.st0{fill:#444545;}
	.st1{fill:url(#SVGID_1_);}
	.st2{fill:#FFFFFF;}
	.st3{fill:#E3EAD3;}
	.st4{fill:#C4D7B7;}
	.st5{fill:#F29E6E;}
	.st6{fill:#E1B39C;}
	.st7{fill:#70C05D;}
	.st8{fill:#47883F;}
	.st9{fill:#15102C;}
	.st10{fill:#919191;}
	.st11{fill:#457438;}
	.st12{fill:#230F44;}
	.st13{fill:#61AA4A;}
	.st14{fill:#0B0B0B;}
	.st15{fill:#63A04E;}
	.st16{opacity:0.8;fill:#444545;}
	.st17{fill:#1A1C1B;}
</style>
<path class="st0" d="M634.12,622.78H12c-6.6,0-12-5.4-12-12V12C0,5.4,5.4,0,12,0h622.12c6.6,0,12,5.4,12,12v598.78
	C646.12,617.38,640.72,622.78,634.12,622.78z"/>
<linearGradient id="SVGID_1_" gradientUnits="userSpaceOnUse" x1="684.6514" y1="-660.8536" x2="955.7454" y2="-660.8536" gradientTransform="matrix(7.216450e-16 -1 1 7.216450e-16 983.3238 995.3792)">
	<stop  offset="0" style="stop-color:#FFFFFF;stop-opacity:0.6"/>
	<stop  offset="0.1588" style="stop-color:#DFEAF4;stop-opacity:0.7129"/>
	<stop  offset="0.3469" style="stop-color:#C3DBED;stop-opacity:0.8465"/>
	<stop  offset="0.4569" style="stop-color:#B9D6EA;stop-opacity:0.9247"/>
</linearGradient>
<path class="st1" d="M628.45,28.25v247.09c0,6.6-5.4,12-12,12H28.49c-6.6,0-12-5.4-12-12V28.25c0-6.6,5.4-12,12-12h587.96
	C623.05,16.25,628.45,21.65,628.45,28.25z"/>
<path class="st2" d="M240.62,167.21c0,0,10.99-21.84,38.42-13.52c0,0,9.29,7.97,5.93,11.44c0,0,9.41-4.51,8.74,2.08
	c0,0,12.77-1.04,9.74,7.63h-65.52"/>
<polygon class="st3" points="20.16,328.8 165.15,180.74 314.94,331.48 "/>
<path class="st2" d="M500.91,200.27c1.69-10.05,7.79-29.89,29.7-28.63c0.32,0.02,0.64,0.07,0.95,0.17
	c2.73,0.82,16.43,5.71,27.96,23.62c1.27,1.98,3.36,2.78,5.29,2.05c6.31-2.39,20.24-5.72,25.81,8.46c1.06,2.7,3.54,3.94,5.82,3.08
	c1.22-0.46,2.59-0.79,4-0.74c6.38,0.23,6.03,12.57-0.36,12.57h-137.8c-2.19,0-4.2-1.8-4.76-4.49c-1.33-6.42,1.52-16.86,37.92-11.25
	C497.98,205.51,500.38,203.44,500.91,200.27z"/>
<path class="st2" d="M327.72,228.9c0.86-4.41,3.96-13.1,15.1-12.55c0.16,0.01,0.32,0.03,0.48,0.07c1.39,0.36,8.35,2.5,14.22,10.35
	c0.65,0.87,1.71,1.22,2.69,0.9c3.21-1.05,10.29-2.51,13.12,3.71c0.54,1.18,1.8,1.73,2.96,1.35c0.62-0.2,1.32-0.34,2.03-0.32
	c3.25,0.1,3.06,5.51-0.18,5.51h-70.07c-1.12,0-2.13-0.79-2.42-1.97c-0.68-2.81,0.78-7.39,19.28-4.93
	C326.23,231.19,327.45,230.28,327.72,228.9z"/>
<polygon class="st3" points="324.93,317.61 420.18,267.06 518.59,318.52 "/>
<polygon class="st3" points="343.1,325.66 482.53,196.22 626.57,328.01 "/>
<polygon class="st3" points="174.1,323.24 269.35,248.1 367.76,324.6 "/>
<polygon class="st4" points="158.57,183.9 199.57,259.17 143.59,298.68 199.57,334.44 16.49,331.76 "/>
<ellipse class="st5" cx="398.69" cy="126.29" rx="45.04" ry="45.29"/>
<path class="st2" d="M150.23,121.81c0.97-5.45,4.46-16.2,17.01-15.52c0.18,0.01,0.37,0.04,0.54,0.09c1.57,0.45,9.41,3.09,16.01,12.8
	c0.73,1.07,1.92,1.51,3.03,1.11c3.61-1.29,11.59-3.1,14.78,4.58c0.61,1.46,2.03,2.13,3.33,1.67c0.7-0.25,1.49-0.43,2.29-0.4
	c3.65,0.12,3.45,6.81-0.21,6.81h-78.9c-1.26,0-2.4-0.97-2.72-2.43c-0.76-3.48,0.87-9.14,21.71-6.1
	C148.55,124.64,149.93,123.52,150.23,121.81z"/>
<ellipse transform="matrix(0.999 -0.044 0.044 0.999 -5.1885 17.672)" class="st6" cx="399.15" cy="126.79" rx="36.01" ry="36.42"/>
<path class="st7" d="M618.23,540.61H28.49c-6.6,0-12-5.4-12-12v-188.6c0-6.6,5.4-12,12-12h589.74c6.6,0,12,5.4,12,12v188.6
	C630.23,535.21,624.83,540.61,618.23,540.61z"/>
<path class="st8" d="M16.49,330.13v276.47h616.88l-36.68-20.07c-160.23,32.42-98.45-36.76-98.45-36.76
	c46.33-39.85-149.13-0.29-149.13-0.29c-123.07,4.63-107.62-48.24-107.62-48.24c48.26-32.42-97-58.27-97-58.27
	c-22.2-2.7-20.27-17.75-20.27-17.75c1.45-8.88-9.65-6.56-9.65-6.56c-40.06-0.77-52.12-23.93-36.2-29.71
	C94.3,383.15,66.3,382,66.3,382c-74.8-43.61-6.27-52.61-6.27-52.61"/>
<path class="st9" d="M1315.38,456.32"/>
<path class="st10" d="M285.46,396.87c0,0,0.51-5.64,4.86-8.17c0,0,5.33,3.63,6.93-1.16c0,0,3.19-5.63,10.31,0.23
	c0,0,2.98,1.32,2.71,4.66c0,0,0,4.03,0.76,4.72c0,0,0.76,2.58,0,3.86c-0.76,1.28,1.75,2.31-4.27,3c-6.02,0.69-21.26-2.74-21.08-4.55
	C285.86,397.67,285.46,396.87,285.46,396.87z"/>
<path class="st10" d="M251.94,478.1c0,0-0.87-5.59,2.74-9.1c0,0,6.05,2.23,6.44-2.81c0,0,1.73-6.24,10.06-2.28
	c0,0,3.21,0.56,3.76,3.87c0,0,0.98,3.91,1.89,4.39c0,0,1.37,2.31,0.94,3.75s2.26,1.82-3.42,3.95s-21.3,2.5-21.56,0.71
	S251.94,478.1,251.94,478.1z"/>
<path class="st3" d="M389.2,326.38c3.15,0.23,3.48,4.62,0.39,5.27c-25.86,5.49-51.45,10.96-110.92,17.23
	c-68.39,7.22-42.83,10.05-38.97,10.4c0.3,0.03,0.6,0.11,0.87,0.23c42.47,19.25,116.51-1.27,121.26-2.62
	c0.17-0.05,0.33-0.08,0.5-0.09c110.48-10.42,167.42,14.55,174.45,17.88c0.48,0.23-28.59-18.78,1.16,1.05
	c29.75,19.82-52.07,42.93-56.04,44.02c-0.13,0.03-0.25,0.06-0.38,0.07c-141.22,17.81-7.15,10.13,32.08,14.9
	c39.24,4.77,0.66,0.05,0.98,0.15c85.28,29.27,110.81,77.83,115.82,89.4c0.62,1.43-0.15,3.04-1.65,3.56
	c-29.94,10.27-103.03-4.94-107.16-5.82c-0.13-0.03-0.24-0.06-0.36-0.11c-18.55-6.92-43.72-7.02-55.39-6.61
	c-2.14,0.07-3.57-2.19-2.47-3.99c7.95-13.06-9.02-32.95-12.5-36.81c-0.39-0.43-0.9-0.73-1.47-0.85
	c-67.65-14.99-130.93-6-153.21-35.32c-21.86-28.76,101.34-30.31,157.28-34.88c-2.98-2.31,0.38-0.03,0.56-0.08
	c147.88-35.2-53.77-26.4-61.57-26.05c-0.16,0.01-0.31,0.03-0.46,0.06c-86.65,19.36-184.73-3.54-184.73-3.54
	c-156.98-33.12,150.91-48.69,159.15-49.1c0.11-0.01,0.22,0,0.34,0L389.2,326.38z"/>
<path class="st10" d="M424.42,808.61"/>
<g>
	<g>
		<polyline class="st11" points="208.6,451.29 156.56,451.29 182.25,381.24 		"/>
		<polyline class="st11" points="208.6,425.18 156.56,425.18 182.25,355.13 		"/>
		<polyline class="st11" points="182.65,330.27 180.58,336.9 163.07,392.86 202.74,392.86 		"/>
		<rect x="179.26" y="451.29" class="st12" width="9.04" height="42.94"/>
	</g>
</g>
<path class="st2" d="M88.1,199.47c1.77-8.05,8.17-23.95,31.13-22.94c0.34,0.01,0.67,0.06,1,0.13c2.86,0.66,17.22,4.58,29.3,18.93
	c1.33,1.58,3.52,2.23,5.54,1.64c6.61-1.91,21.21-4.58,27.05,6.78c1.11,2.16,3.71,3.15,6.1,2.46c1.28-0.37,2.72-0.63,4.19-0.59
	c6.69,0.18,6.32,10.07-0.38,10.07H47.61c-2.3,0-4.4-1.44-4.98-3.59c-1.4-5.14,1.6-13.51,39.74-9.01
	C85.03,203.66,87.54,202,88.1,199.47z"/>
<path class="st4" d="M499.49,204.77c-5.79-5.44-15.3-2.52-17.03,5.23l-6.55,29.22l-17.34,63.31c-1.77,6.45,3.01,12.84,9.7,12.96
	l125.4,2.36c9.38,0.18,14.05-11.3,7.22-17.72L499.49,204.77z"/>
<path class="st8" d="M72.73,340.28l549.57-13.35c0,0,1.35-2.36-3.89-3.34s-5.01-2.64-5.01-6.4c0,0,0.52-4.03-2.1,0
	c-2.62,4.03-2.39,1.67-2.62-0.83c-0.22-2.5-1.95-8.76-1.95-8.76l-4.12-5.15l-3.44-0.7l-5.01,2.09l-4.49-5.56
	c0,0-0.9-3.34-10.63,2.78c0,0-4.04,5.14-6.14-3.69c0,0-2.39-7.71-12.42,5.08c0,0-3.14,5.84-5.99-0.83c0,0-12.87-15.02-21.55-2.78
	c0,0-9.13,1.8-11.37-4.8c0,0-2.99-6.32-9.43,3.13c0,0-1.05-4.17-3.74,1.67s-3.59,1.11-5.54-0.28s-5.09-2.23-6.73,0.56
	c-1.65,2.78-4.49,0-7.18-1.67s-5.84-2.78-7.93-0.56s-8.98,13.35-28.74,0s-19.16-1.11-29.33,2.23c-10.18,3.34-6.59,32.84-46.7,16.42
	c0,0-3.99-3.44-6.98,2.12c-2.99,5.56-8.98,0.21-11.17-2.12c-2.2-2.33-2.79-4.35-4.79,0c-2,4.35-4.04,1.59-5.71,0
	c-1.67-1.59-1.67,2.86-4.47,2.86s-7.58-1.48-10.38-1.11c-2.79,0.37-5.39,6.3-8.18,4.45s-4.79-5.56-7.38-2.6
	c-2.59,2.97-1.6,0.74-7.18,1.48c-5.59,0.74-5.39,2.97-6.59,5.19c-1.2,2.23,2.39,2.6-3.99,1.11c-6.39-1.48-9.18-7.05-9.38-1.85
	c-0.2,5.19-12.37,0.74-13.97,0c-1.6-0.74,2.99,0.74-1.6-0.74c-4.59-1.48-2.59-2.6-8.18,0c-5.59,2.6-2.79,4.82-6.59,2.23
	c-3.79-2.6,0.4,2.97-7.98,0.74c-8.38-2.23-4.79-5.19-9.38-4.08s1.6,3.71-4.59,5.56c-6.19,1.85-1,0.74-7.38,0.74
	c-6.39,0-1.4-0.74-7.78,0s-5.99,1.48-9.38,1.85c-3.39,0.37-7.18,2.6-8.98,2.6s1.4,1.11-5.79,0c-7.18-1.11-5.39-2.23-8.18-1.48
	c-2.79,0.74-6.98,1.48-6.98,1.48l-1.8,0.37l-5.99,1.85L72.73,340.28z"/>
<path class="st13" d="M130.3,606.11c0,0,8.19-21.4,64.81-36.14c56.62-14.74,82.47-37.85,103.67-26.58
	c21.2,11.28,68.05,10.28,76.46-9.04c0.08-0.19,0.17-0.39,0.25-0.58c11.94-27.69,29.46-42.36,47.4-39.6
	c10.21,1.57,22.97,5.28,38.89,12.3c67.52,29.77,90.66-39.96,141.15-8.72c0,0,20.26,10.94,24.84-7.66
	c4.58-18.6,1.35,116.5,1.35,116.5"/>
<g>
	<g>
		<polyline class="st11" points="610.19,372.71 564.64,372.71 587.12,325.88 		"/>
		<polyline class="st11" points="610.19,355.26 564.64,355.26 587.12,308.42 		"/>
		<polyline class="st11" points="587.47,291.8 585.66,296.23 570.34,333.64 605.06,333.64 		"/>
		<rect x="584.51" y="372.71" class="st12" width="7.91" height="28.71"/>
	</g>
</g>
<path class="st2" d="M534.89,82.69c0,0,13.28-27.16,46.43-16.82c0,0,11.22,9.92,7.16,14.23c0,0,11.37-5.61,10.56,2.59
	c0,0,15.43-1.29,11.77,9.49h-79.18"/>
<path class="st10" d="M101.46,374.98c0,0,0.51-5.64,4.86-8.17c0,0,5.33,3.63,6.93-1.16c0,0,3.19-5.63,10.31,0.23
	c0,0,2.98,1.32,2.71,4.66c0,0,0,4.03,0.76,4.72c0,0,0.76,2.58,0,3.86c-0.76,1.28,1.75,2.31-4.27,3s-21.26-2.74-21.08-4.55
	C101.86,375.78,101.46,374.98,101.46,374.98z"/>
<path class="st14" d="M297.07,99.75"/>
<path class="st14" d="M297.87,103.3c0,0,1.38-3.21,7.45-2.29c0,0-1.03-5.16,3.9-5.85c0,0-4.24,2.64-2.52,8.14
	C306.7,103.3,302.8,100.2,297.87,103.3z"/>
<path class="st14" d="M340.77,91.7c0,0,2.52-2.41,7.75,0.81c0,0,1.07-5.15,5.88-3.85c0,0-4.94,0.76-5.51,6.5
	C348.89,95.16,346.52,90.78,340.77,91.7z"/>
<path class="st14" d="M322.31,114.94c0,0,2.9-1.94,7.5,2.14c0,0,1.95-4.89,6.46-2.77c0,0-4.99-0.1-6.55,5.45
	C329.71,119.76,328.13,115.04,322.31,114.94z"/>
<path class="st14" d="M424.26,217.1c0,0,2.17-1.58,7.5,1.4c0,0,0.5-3.81,5.23-2.34c0,0-4.65,0.08-4.61,4.39
	C432.38,220.56,429.67,216.98,424.26,217.1z"/>
<path class="st14" d="M208.6,190.77c0,0,2.77-2.77,6.7,0.54c0,0,2.08-5.72,6.06-4.51c0,0-4.55,1.07-6.32,7.41
	C215.05,194.2,213.9,189.49,208.6,190.77z"/>
<polyline class="st15" points="182.87,337.87 197.6,388.26 190.76,388.26 202.6,422.66 194.6,421.68 205.74,451.23 209.87,451.23 
	200.6,426.6 211.6,426.6 198.56,394.55 205.53,393.37 184.5,332.16 "/>
<polyline class="st15" points="147.57,302.81 151.7,320.03 149.78,320.03 153.1,331.78 150.86,331.45 153.98,341.54 155.13,341.54 
	152.54,333.12 155.62,333.12 151.97,322.18 153.92,321.77 148.03,300.86 "/>
<path class="st16" d="M285.37,400.05c0,0-9.88,0.85,4.53,4.32c0,0,13.79,3.39,21.41-0.77c0,0,0.86-2.46-3.95-1.19
	C307.37,402.41,298.65,405.37,285.37,400.05z"/>
<polyline class="st15" points="589.88,295.67 576.1,329.9 582.5,329.9 571.42,353.27 578.91,352.6 568.48,372.67 564.62,372.67 
	573.29,355.94 563,355.94 575.21,334.17 568.68,333.37 588.36,291.8 "/>
<polygon class="st4" points="267.86,249.17 279.18,266.8 280.79,287.86 295.92,294.67 301.2,317.22 308.3,323.31 174.1,324.6 "/>
<path class="st8" d="M305.25,324.53l-288.5,14.57c0,0-0.87-1.81,1.81-2.82c2.67-1.01,2.44-2.32,2.18-5.29c0,0-0.55-3.17,1.1-0.1
	c1.65,3.07,1.37,1.21,1.31-0.78c-0.06-1.99,0.41-7.02,0.41-7.02l1.8-4.26l1.75-0.71l2.77,1.42l1.97-4.6c0,0,0.24-2.68,5.75,1.71
	c0,0,2.47,3.88,2.96-3.2c0,0,0.72-6.21,6.85,3.45c0,0,2.05,4.47,3.08-0.93c0,0,5.7-12.46,11.09-3.18c0,0,4.9,1.01,5.62-4.32
	c0,0,1.13-5.14,5.15,2.05c0,0,0.26-3.35,2.07,1.15c1.81,4.5,1.96,0.72,2.88-0.47c0.92-1.19,2.51-1.99,3.56,0.13s2.35-0.21,3.64-1.65
	c1.29-1.44,2.86-2.47,4.11-0.8c1.25,1.66,5.62,10.15,15.04-1.31c9.42-11.46,9.95-1.76,15.5,0.42c5.56,2.17,5.71,25.67,25.57,10.85
	c0,0,1.85-2.9,3.8,1.36c1.95,4.26,4.71-0.25,5.7-2.19c0.99-1.94,1.16-3.57,2.51-0.22c1.34,3.35,2.22,1.07,2.99-0.26
	c0.77-1.33,1.07,2.19,2.54,2.06c1.46-0.13,3.87-1.52,5.35-1.35c1.49,0.17,3.25,4.74,4.59,3.14c1.33-1.59,2.12-4.62,3.68-2.39
	c1.56,2.23,0.89,0.51,3.86,0.84c2.98,0.33,3.02,2.1,3.8,3.8c0.78,1.7-1.07,2.16,2.17,0.7c3.24-1.46,4.32-5.99,4.78-1.89
	c0.46,4.1,6.53,0.02,7.31-0.64c0.78-0.66-1.52,0.72,0.78-0.66c2.3-1.38,1.18-2.17,4.28-0.37s1.79,3.68,3.6,1.46
	c1.8-2.23,0,2.36,4.23,0.22c4.23-2.14,2.15-4.32,4.63-3.65c2.48,0.67-0.58,3.01,2.79,4.19c3.37,1.18,0.57,0.54,3.91,0.25
	s0.68-0.65,4.07-0.36c3.39,0.29,3.24,0.9,5.04,1.04c1.8,0.14,3.94,1.72,4.88,1.64c0.94-0.08-0.65,0.94,3.03-0.26
	c3.68-1.21,2.67-2.01,4.18-1.55c1.51,0.46,3.76,0.85,3.76,0.85l0.97,0.21l3.26,1.19L305.25,324.53z"/>
<g>
	<g>
		<polyline class="st11" points="155.62,342.17 139.52,342.17 147.47,317.84 		"/>
		<polyline class="st11" points="155.62,333.1 139.52,333.1 147.47,308.78 		"/>
		<polyline class="st11" points="147.59,300.14 146.95,302.44 141.54,321.87 153.81,321.87 		"/>
		<rect x="146.54" y="342.17" class="st12" width="2.8" height="14.91"/>
	</g>
</g>
<rect x="16.61" y="540.61" class="st17" width="613.61" height="65.99"/>
</svg>
